<svg xmlns="http://www.w3.org/2000/svg" viewBox="0 0 128 128">
  <defs>
    <linearGradient id="grad" x1="0%" x2="100%" y1="0%" y2="100%">
      <stop offset="0%" stop-color="#22d3ee" />
      <stop offset="100%" stop-color="#0ea5e9" />
    </linearGradient>
  </defs>
  <rect width="128" height="128" rx="28" fill="#0f172a" />
  <path
    d="M62 30c-10 0-21 5-29 13-8 9-11 20-9 31 2 10 9 19 19 25 10 6 21 7 31 3 10-3 19-11 24-21 5-9 5-20 0-29-5-10-14-18-26-21-3-1-6-1-10-1Zm3 15c13 2 22 14 20 26-1 12-13 21-26 19-12-1-21-13-19-25 1-13 12-21 25-20Z"
    fill="url(#grad)"
  />
</svg>
